<?xml version="1.0" encoding="utf-8" ?>
<svg xmlns="http://www.w3.org/2000/svg" xmlns:xlink="http://www.w3.org/1999/xlink" width="1024" height="1024">
	<path fill="#FDFDFD" d="M0 0L1024 0L1024 1024L0 1024L0 0Z"/>
	<path fill="#FDFDFD" d="M514.209 81.7999C516.641 83.6377 517.908 86.4186 518.325 89.4066C518.667 91.8584 518.379 95.4101 516.825 97.442C516.387 98.0145 516.443 97.8575 515.711 98.0936C514.86 98.3679 515.171 98.2107 514.637 98.5396C514.747 97.6573 514.361 97.323 513.951 96.5579C515.346 94.6021 516.056 92.8548 516.007 90.4084C515.939 86.9775 513.933 84.5994 511.592 82.3207C512.692 82.4321 513.19 82.1738 514.209 81.7999Z"/>
	<path fill="#FDFDFD" d="M836.575 90.0689C838.871 89.8386 840.912 89.7188 843.109 90.5577C846.091 91.6964 848.412 93.8767 849.645 96.8285Q849.884 97.4058 850.063 98.0047Q850.242 98.6035 850.358 99.2175Q850.474 99.8315 850.527 100.454Q850.58 101.077 850.568 101.702Q850.557 102.327 850.482 102.947Q850.406 103.567 850.268 104.177Q850.129 104.786 849.928 105.378Q849.728 105.97 849.468 106.538C847.616 110.513 844.755 112.194 840.812 113.694C838.517 114.063 836.378 114.006 834.161 113.22C831.587 112.308 829.585 110.448 828.44 107.973C826.91 104.668 827.01 100.629 828.425 97.3043C830.107 93.3531 832.662 91.5376 836.575 90.0689Z"/>
	<path fill="#FDFDFD" d="M836.432 92.5429C838.305 92.4956 840.368 92.321 842.138 93.0343Q842.592 93.2193 843.026 93.4488Q843.459 93.6782 843.867 93.9499Q844.276 94.2215 844.655 94.5325Q845.034 94.8436 845.38 95.1909Q845.726 95.5383 846.036 95.9185Q846.346 96.2987 846.616 96.7079Q846.886 97.1172 847.115 97.5514Q847.343 97.9856 847.526 98.4404Q847.707 98.8989 847.84 99.3736Q847.973 99.8484 848.056 100.334Q848.14 100.82 848.173 101.312Q848.206 101.804 848.188 102.296Q848.17 102.789 848.102 103.277Q848.034 103.766 847.916 104.244Q847.798 104.723 847.631 105.187Q847.464 105.651 847.251 106.095C845.812 109.127 843.461 110.443 840.429 111.548C839.037 111.604 837.653 111.64 836.296 111.271C833.777 110.586 831.471 108.857 830.251 106.534Q830.044 106.131 829.877 105.709Q829.711 105.287 829.587 104.851Q829.464 104.414 829.384 103.968Q829.304 103.522 829.269 103.07Q829.234 102.618 829.244 102.164Q829.254 101.711 829.309 101.261Q829.363 100.811 829.462 100.368Q829.562 99.9257 829.704 99.4952C830.82 96.0215 833.299 94.1195 836.432 92.5429Z"/>
	<path fill="#FDFDFD" d="M95.0848 373.07C97.6273 372.955 99.8466 373.105 102.269 373.95C106.453 375.41 109.844 378.205 111.683 382.283C113.582 386.491 113.763 391.553 111.948 395.819C109.495 401.584 104.962 404.042 99.4694 406.218C95.9271 406.611 92.4069 405.787 89.3126 404.016Q88.9328 403.798 88.5649 403.561Q88.197 403.324 87.842 403.069Q87.4869 402.813 87.1457 402.539Q86.8045 402.264 86.478 401.973Q86.1516 401.682 85.8407 401.373Q85.5299 401.065 85.2356 400.741Q84.9413 400.418 84.6642 400.079Q84.3872 399.74 84.1282 399.387Q83.8692 399.034 83.629 398.669Q83.3888 398.303 83.168 397.925Q82.9471 397.547 82.7463 397.158Q82.5455 396.769 82.3652 396.37Q82.185 395.972 82.0257 395.564Q81.8665 395.156 81.7288 394.741Q81.591 394.326 81.4751 393.904Q81.3592 393.481 81.2655 393.054C80.2526 388.517 81.0927 383.538 83.7849 379.717C86.6195 375.693 90.395 374.001 95.0848 373.07Z"/>
	<path fill="#FDFDFD" d="M95.8843 375.165C98.6241 375.315 100.882 375.865 103.29 377.226C106.686 379.145 109.213 382.231 110.229 386.023C111.204 389.664 110.767 393.68 108.851 396.946C106.472 401.003 102.937 402.51 98.6159 403.649C98.4644 403.648 98.3129 403.65 98.1614 403.645C97.9093 403.639 97.6574 403.624 97.4054 403.616C94.7417 403.528 92.5717 402.893 90.2727 401.506Q89.6498 401.135 89.0664 400.705Q88.483 400.275 87.9448 399.79Q87.4066 399.304 86.9188 398.768Q86.431 398.232 85.9984 397.65Q85.5657 397.069 85.1924 396.447Q84.8191 395.826 84.5088 395.171Q84.1985 394.516 83.9542 393.834Q83.7099 393.151 83.534 392.448C82.6229 388.662 83.468 384.659 85.6306 381.445C88.1472 377.704 91.5688 375.976 95.8843 375.165Z"/>
	<path fill="#FDFDFD" d="M441.027 281.586C444.094 281.429 446.835 281.616 449.646 282.933Q450.383 283.278 451.083 283.695Q451.783 284.111 452.438 284.595Q453.092 285.078 453.696 285.625Q454.3 286.171 454.847 286.774Q455.394 287.377 455.878 288.032Q456.362 288.686 456.78 289.385Q457.197 290.084 457.543 290.821Q457.889 291.558 458.16 292.326C459.761 296.825 459.337 302.065 457.095 306.275C454.463 311.218 450.58 313.092 445.473 314.561C441.593 314.652 438.312 314.525 434.784 312.629Q434.069 312.243 433.397 311.786Q432.724 311.33 432.101 310.808Q431.478 310.286 430.911 309.704Q430.344 309.122 429.838 308.485Q429.333 307.849 428.894 307.165Q428.455 306.481 428.088 305.756Q427.72 305.031 427.427 304.273Q427.135 303.515 426.92 302.731C425.697 298.294 426.198 293.254 428.643 289.313C431.502 284.704 435.929 282.74 441.027 281.586Z"/>
	<path fill="#FDFDFD" d="M438.594 284.103C441.897 283.905 444.87 283.72 447.987 285.109C451.632 286.732 454.601 289.696 456.024 293.444C457.372 296.993 457.258 301.09 455.58 304.513C453.766 308.213 450.46 310.516 446.687 311.91C443.8 312.573 441.143 312.783 438.276 311.881C434.751 310.772 431.914 308.339 430.208 305.069C428.377 301.559 427.888 297.337 429.173 293.561C430.831 288.688 434.259 286.346 438.594 284.103Z"/>
	<path fill="#FDFDFD" d="M612.288 72.7725C614.08 70.6542 616.319 69.4003 619.11 69.1211C622.215 68.8105 626.356 70.3773 628.637 72.4965C630.825 74.5301 631.786 77.3744 631.731 80.32Q631.722 80.986 631.648 81.6479Q631.573 82.3098 631.434 82.9612Q631.295 83.6126 631.093 84.2472Q630.89 84.8818 630.627 85.4935Q630.363 86.1052 630.041 86.688Q629.718 87.2709 629.34 87.8193Q628.962 88.3676 628.532 88.8763Q628.102 89.3849 627.624 89.8488C625.66 91.723 623.023 93.0272 620.268 92.9567C618.055 92.9001 615.083 91.8851 613.451 90.3624C612.563 89.68 611.617 89.0575 610.701 88.4129L604.13 91.8944C601.779 93.8861 597.05 95.5057 594.205 96.962Q581.849 103.371 569.28 109.352C561.689 112.989 553.547 116.246 546.768 121.286L546.843 121.758C547.445 125.725 548.002 128.967 545.925 132.681C544.431 135.352 541.8 137.204 538.843 137.92Q538.244 138.068 537.632 138.152Q537.021 138.237 536.404 138.258Q535.787 138.279 535.171 138.235Q534.556 138.192 533.948 138.086Q533.34 137.979 532.746 137.81Q532.152 137.641 531.579 137.411Q531.006 137.181 530.46 136.894Q529.914 136.606 529.401 136.263Q528.922 135.946 528.479 135.58Q528.036 135.215 527.633 134.805Q527.23 134.395 526.873 133.946Q526.515 133.496 526.207 133.012Q525.898 132.527 525.642 132.013Q525.385 131.499 525.184 130.961Q524.983 130.423 524.839 129.867Q524.695 129.311 524.61 128.743C523.924 124.069 526.235 120.717 528.828 117.161C523.569 111.987 518.639 106.442 513.742 100.927C510.855 101.64 508.004 102.064 505.061 102.453C498.152 115.913 493.976 130.274 488.274 144.214C490.769 146.077 492.666 148.162 494.105 150.957C495.262 153.204 495.563 155.733 494.652 158.121C493.405 161.391 490.571 163.934 487.374 165.248Q486.767 165.5 486.137 165.689Q485.507 165.879 484.862 166.003Q484.216 166.127 483.561 166.185Q482.906 166.242 482.248 166.233Q481.591 166.224 480.938 166.148Q480.284 166.072 479.642 165.93Q479 165.788 478.376 165.581Q477.752 165.374 477.152 165.105C474.721 164.029 472.684 162.251 471.835 159.673C470.484 155.575 472.244 150.973 474.13 147.351Q459.232 132.787 443.514 119.11C439.613 121.298 436.794 121.229 432.436 120.515C423.336 136.824 414.969 156.745 406.816 173.843C403.896 179.968 401.38 186.33 397.918 192.177L398.248 192.403C398.431 192.53 398.611 192.661 398.794 192.787C401.68 194.775 403.662 196.661 404.583 200.166C405.603 204.051 404.291 208.251 402.372 211.62C402.139 211.788 401.907 211.96 401.672 212.126C398.757 214.171 395.406 215.305 391.842 214.529C387.959 213.683 385.521 211.027 383.535 207.781C383.256 203.725 382.881 198.833 385.743 195.54C388.202 192.71 391.893 192.23 395.401 191.903C399.966 183.334 403.952 174.354 408.129 165.582C412.308 156.803 416.711 148.124 420.777 139.292C423.832 132.657 426.016 125.3 429.647 118.995C428.401 117.294 427.162 115.638 426.426 113.641C425.283 110.539 424.86 107.146 426.473 104.13C428.028 101.222 431.084 99.125 434.208 98.2244Q434.753 98.0616 435.312 97.9543Q435.871 97.8471 436.438 97.7964Q437.005 97.7457 437.574 97.7522Q438.143 97.7586 438.709 97.8221Q439.274 97.8856 439.831 98.0055Q440.387 98.1254 440.928 98.3005Q441.47 98.4756 441.991 98.7042Q442.512 98.9327 443.008 99.2124C445.658 100.71 447.77 103.106 448.503 106.1C449.479 110.084 447.839 113.85 445.807 117.169C455.684 126.764 466.032 135.953 476.133 145.322C479.65 143.557 482.352 143.4 486.189 143.423C490.911 129.133 497.023 115.428 502.1 101.275C499.016 98.8147 496.715 96.3982 495.971 92.3777C495.372 89.1431 496.284 85.8156 498.262 83.2095C500.087 80.8047 502.717 79.0095 505.774 78.734C509.027 78.4411 511.759 79.7855 514.209 81.7999C513.19 82.1738 512.692 82.4321 511.592 82.3207C513.933 84.5994 515.939 86.9775 516.007 90.4084C516.056 92.8548 515.346 94.6021 513.951 96.5579C514.361 97.323 514.747 97.6573 514.637 98.5396C520.486 103.859 525.738 109.875 531.092 115.687Q532.719 115.422 534.361 115.266C538.74 114.853 541.62 115.679 545.007 118.485Q573.407 104.19 601.994 90.2731C604.566 88.9273 607.212 87.7795 609.871 86.6196C609.616 85.5841 609.351 84.5322 609.213 83.4738C608.675 79.3792 609.682 75.934 612.288 72.7725Z"/>
	<path fill="#FDFDFD" d="M390.411 195.114C391.937 194.911 393.677 194.705 395.2 194.955C397.694 195.365 400.116 196.96 401.473 199.092Q401.696 199.443 401.882 199.815Q402.068 200.187 402.216 200.576Q402.363 200.965 402.47 201.367Q402.577 201.769 402.643 202.18Q402.709 202.591 402.733 203.006Q402.757 203.421 402.739 203.837Q402.72 204.252 402.66 204.664Q402.6 205.076 402.498 205.479C401.707 208.555 400.046 210.255 397.42 211.899C395.978 212.073 394.408 212.185 392.96 212.046C390.517 211.812 388.035 209.991 386.655 208.034Q386.413 207.686 386.207 207.316Q386.001 206.946 385.835 206.556Q385.668 206.166 385.542 205.762Q385.416 205.357 385.332 204.942Q385.248 204.527 385.207 204.105Q385.166 203.683 385.168 203.26Q385.17 202.836 385.215 202.415Q385.261 201.993 385.349 201.579C386.044 198.467 387.797 196.753 390.411 195.114Z"/>
	<path fill="#FDFDFD" d="M513.951 96.5579C513.13 97.2161 512.298 97.8528 511.358 98.3355C509.192 99.4479 506.315 100.27 503.948 99.3253C501.776 98.4581 500.274 96.4932 499.398 94.3836Q499.187 93.8759 499.03 93.3491Q498.872 92.8224 498.77 92.2823Q498.668 91.7421 498.621 91.1943Q498.575 90.6465 498.586 90.0969Q498.596 89.5473 498.663 89.0016Q498.73 88.4559 498.853 87.9201Q498.976 87.3842 499.153 86.8638Q499.33 86.3435 499.56 85.8441C500.489 83.8077 501.966 82.0125 504.16 81.3122C506.813 80.4654 509.2 81.0918 511.592 82.3207C513.933 84.5994 515.939 86.9775 516.007 90.4084C516.056 92.8548 515.346 94.6021 513.951 96.5579Z"/>
	<path fill="#FDFDFD" d="M533.389 118.567C535.072 118.433 536.854 118.283 538.514 118.682C540.91 119.257 543.164 121.124 544.34 123.267Q544.552 123.648 544.722 124.049Q544.893 124.45 545.021 124.866Q545.149 125.283 545.233 125.71Q545.317 126.138 545.356 126.572Q545.395 127.006 545.388 127.442Q545.382 127.877 545.33 128.31Q545.278 128.743 545.181 129.168Q545.084 129.593 544.944 130.005C543.895 133.062 541.655 134.709 538.861 136.064C537.075 136.34 535.369 136.458 533.62 135.876C531.138 135.049 528.985 133.099 527.882 130.732C526.871 128.561 526.714 126.067 527.61 123.83C528.69 121.129 530.841 119.713 533.389 118.567Z"/>
	<path fill="#FDFDFD" d="M480.49 146.068C481.954 145.989 483.54 145.893 484.98 146.225C487.203 146.739 489.437 148.328 490.616 150.281C491.867 152.355 492.073 154.779 491.456 157.089C490.464 160.806 488.156 162.584 484.91 164.36C483.455 164.493 482.162 164.504 480.757 164.033C478.159 163.162 475.862 161.259 474.689 158.765C473.57 156.385 473.455 153.708 474.48 151.273C475.653 148.485 477.864 147.266 480.49 146.068Z"/>
	<path fill="#FDFDFD" d="M436.269 99.5452C437.657 99.6443 438.994 99.9002 440.273 100.464C442.695 101.53 444.628 103.789 445.535 106.248C446.436 108.694 446.382 111.419 445.194 113.761C443.786 116.538 441.456 117.319 438.639 118.161C437.029 118.169 435.304 118.254 433.778 117.658Q433.33 117.479 432.903 117.254Q432.477 117.029 432.076 116.76Q431.675 116.492 431.304 116.183Q430.934 115.874 430.597 115.528Q430.261 115.182 429.963 114.803Q429.664 114.423 429.407 114.015Q429.15 113.607 428.937 113.174Q428.724 112.741 428.558 112.288C427.694 109.877 427.986 107.087 429.233 104.862C430.807 102.055 433.253 100.451 436.269 99.5452Z"/>
	<path fill="#FDFDFD" d="M613.171 74.4824C615.439 72.5456 618.573 71.04 621.631 71.24C623.835 71.3842 625.76 72.6997 627.125 74.374Q627.469 74.7984 627.767 75.2565Q628.066 75.7145 628.314 76.2012Q628.563 76.6878 628.76 77.1978Q628.956 77.7077 629.099 78.2354Q629.241 78.763 629.328 79.3027Q629.414 79.8423 629.444 80.388Q629.474 80.9338 629.446 81.4796Q629.419 82.0255 629.335 82.5655C628.945 85.0793 627.618 87.6578 625.487 89.1209C623.469 90.5072 620.599 90.6503 618.258 90.2016C616.913 89.9439 615.593 89.2816 614.425 88.5934C613.058 87.232 611.756 85.5727 611.223 83.6897C610.272 80.3341 611.49 77.3564 613.171 74.4824Z"/>
	<path fill="#010003" d="M211.577 55.711Q216.627 55.4567 221.681 55.5926C257.247 56.2933 293.024 71.6062 317.643 97.3891Q318.875 98.7027 320.075 100.046Q321.275 101.389 322.442 102.762Q323.609 104.134 324.742 105.534Q325.875 106.934 326.973 108.362Q328.072 109.789 329.135 111.243Q330.198 112.697 331.226 114.177Q332.253 115.656 333.244 117.161Q334.235 118.665 335.189 120.193Q336.143 121.72 337.059 123.271Q337.975 124.822 338.853 126.395Q339.732 127.967 340.571 129.561Q341.411 131.155 342.211 132.768Q343.011 134.382 343.772 136.015Q344.532 137.647 345.253 139.298Q345.974 140.949 346.654 142.617Q347.334 144.285 347.973 145.969Q348.612 147.653 349.209 149.352Q349.807 151.051 350.363 152.765Q350.919 154.478 351.433 156.204Q351.947 157.931 352.419 159.669Q352.891 161.407 353.32 163.157Q353.749 164.906 354.135 166.665Q354.522 168.425 354.865 170.193Q355.208 171.961 355.508 173.737Q355.808 175.513 356.064 177.296Q356.321 179.079 356.534 180.868Q356.746 182.656 356.915 184.45Q357.084 186.243 357.21 188.04Q357.335 189.837 357.416 191.636Q357.497 193.435 357.535 195.236Q357.572 197.037 357.565 198.838Q357.559 200.639 357.508 202.44C356.634 234.508 343.745 266.257 323.04 290.542C315.996 298.803 307.961 306.094 300.087 313.54C308.84 326.992 320.881 338.873 333.17 349.096C336.796 352.112 340.799 354.816 344.349 357.862C345.335 358.709 345.547 359.303 345.653 360.552C344.86 361.379 345.221 361.254 344.26 361.478C340.84 362.277 335.998 360.861 332.537 360.229C313.638 356.782 295.709 351.743 278.99 341.933C273.951 338.986 269.273 335.738 264.678 332.136C253.105 335.237 241.656 338.491 229.645 339.411Q227.876 339.543 226.105 339.631Q224.334 339.719 222.561 339.763Q220.788 339.807 219.014 339.807Q217.24 339.807 215.467 339.763Q213.694 339.719 211.923 339.631Q210.152 339.544 208.383 339.412Q206.614 339.28 204.849 339.105Q203.085 338.929 201.325 338.71Q199.565 338.491 197.811 338.228Q196.057 337.966 194.31 337.66Q192.563 337.353 190.824 337.004Q189.085 336.655 187.356 336.263Q185.626 335.87 183.906 335.435Q182.187 335 180.479 334.523Q178.771 334.046 177.075 333.526Q175.379 333.006 173.697 332.445Q172.015 331.883 170.347 331.28Q168.679 330.677 167.027 330.033Q165.374 329.389 163.738 328.704Q162.102 328.019 160.484 327.294Q158.865 326.569 157.265 325.803Q155.665 325.038 154.085 324.234Q152.504 323.429 150.944 322.586Q149.384 321.742 147.845 320.86Q146.306 319.979 144.79 319.059Q143.273 318.139 141.78 317.182Q140.287 316.225 138.818 315.231Q137.349 314.238 135.905 313.208Q134.461 312.178 133.043 311.113Q131.625 310.047 130.234 308.947Q128.843 307.847 127.479 306.713Q126.116 305.579 124.781 304.411C96.2001 279.698 78.4249 242.778 75.8595 205.203C73.3422 168.333 87.4529 130.481 111.672 102.926C131.036 80.8937 159.097 64.8179 187.757 58.6331C195.634 56.9331 203.555 56.2248 211.577 55.711Z"/>
	<path fill="#FDFDFD" d="M209.755 59.205C219.954 58.3344 231.26 59.132 241.305 60.945Q242.963 61.2342 244.613 61.5645Q246.263 61.8948 247.904 62.2661Q249.545 62.6374 251.177 63.0495Q252.809 63.4615 254.429 63.914Q256.05 64.3665 257.659 64.8591Q259.268 65.3518 260.865 65.8844Q262.461 66.417 264.043 66.9891Q265.626 67.5612 267.194 68.1726Q268.761 68.7839 270.314 69.4341Q271.866 70.0842 273.401 70.7728Q274.937 71.4614 276.454 72.188Q277.972 72.9145 279.472 73.6786Q280.971 74.4428 282.451 75.244Q283.931 76.0452 285.39 76.8829Q286.849 77.7207 288.287 78.5945Q289.726 79.4683 291.141 80.3776Q292.557 81.287 293.95 82.2313Q295.343 83.1756 296.712 84.1542Q298.081 85.1329 299.425 86.1453Q300.769 87.1577 302.088 88.2033Q303.406 89.2488 304.699 90.3269Q305.991 91.4049 307.256 92.5148Q308.52 93.6246 309.757 94.7656Q310.994 95.9066 312.202 97.078Q313.41 98.2495 314.589 99.4506Q315.768 100.652 316.916 101.882Q318.064 103.112 319.182 104.37Q320.299 105.628 321.385 106.914Q322.47 108.2 323.524 109.512Q324.577 110.824 325.598 112.162Q326.618 113.501 327.605 114.864Q328.591 116.227 329.544 117.614Q331.128 119.943 332.618 122.334Q334.108 124.724 335.501 127.172Q336.895 129.621 338.189 132.122Q339.484 134.624 340.677 137.176Q341.871 139.727 342.962 142.324Q344.053 144.921 345.039 147.56Q346.025 150.198 346.905 152.874Q347.786 155.55 348.558 158.259Q349.331 160.967 349.995 163.705Q350.659 166.442 351.213 169.204Q351.768 171.966 352.211 174.748Q352.655 177.53 352.987 180.327Q353.319 183.124 353.539 185.932Q353.76 188.74 353.868 191.555Q353.976 194.37 353.971 197.187Q353.967 200.004 353.85 202.818Q353.733 205.633 353.504 208.44Q353.275 211.248 352.934 214.044Q352.593 216.84 352.141 219.62Q351.689 222.401 351.126 225.161Q350.563 227.921 349.891 230.656Q349.218 233.391 348.437 236.098Q347.656 238.804 346.767 241.477Q345.879 244.15 344.884 246.786Q343.89 249.421 342.791 252.015Q341.692 254.608 340.49 257.156Q339.288 259.704 337.986 262.202Q336.684 264.699 335.283 267.143Q333.882 269.587 332.385 271.973Q330.887 274.359 329.296 276.683Q327.704 279.007 326.022 281.266Q324.339 283.525 322.567 285.715C318.326 290.978 313.817 296.077 308.859 300.677C304.973 304.282 300.654 307.658 297.018 311.503C296.491 312.06 296.309 312.453 296.17 313.198C296.995 316.711 300.125 319.905 302.356 322.676C312.862 335.726 324.742 347.165 337.925 357.496C316.513 354.611 296.307 348.306 277.719 337.178C273.277 334.42 269.135 331.213 264.947 328.088Q260.427 329.793 255.794 331.159Q251.161 332.525 246.439 333.545Q241.718 334.565 236.934 335.233Q232.15 335.902 227.33 336.215C191.545 338.683 153.748 325.368 126.799 301.842C99.7582 278.238 82.0424 242.512 79.5536 206.732C76.9333 169.06 89.9901 132.828 114.814 104.594C138.5 77.6523 174.238 61.5033 209.755 59.205Z"/>
	<path fill="#010003" d="M208.495 87.549C213.995 87.0138 233.756 87.2867 237.628 90.4448C240.85 93.0727 240.519 103.353 240.817 107.389C250.29 110.163 259.556 113.872 267.809 119.327C272.128 116.579 275.878 112.077 280.941 110.662C282.855 110.127 284.187 110.722 285.796 111.719C291.415 115.199 304.774 128.035 306.135 134.276C305.64 138.21 297.896 143.921 294.877 146.665C300.928 157.169 305.335 166.366 307.744 178.347C312.171 178.919 318.532 179.035 322.446 181.161C323.838 181.917 324.295 182.961 324.688 184.444C326.298 190.521 326.485 210.269 323.464 215.482C319.832 218.196 312.145 217.668 307.712 217.949C306.187 228.837 301.395 240.006 295.135 248.995C298.465 253.151 303.78 257.472 305.535 262.522C305.488 263.929 305.009 264.846 304.264 266.002C301.595 270.15 285.356 287.292 280.931 287.5C276.694 287.7 270.484 279.665 266.882 277.357C266.74 277.267 266.596 277.181 266.453 277.093C254.665 282.635 243.962 286.812 230.991 288.67C230.356 293.708 231.042 299.684 228.957 304.383C228.033 306.464 226.763 307.193 224.706 307.993C219.14 308.233 198.794 308.819 194.868 305.381C191.547 302.474 192.181 291.308 191.924 287.161C179.78 283.594 169.836 278.203 159.637 270.814C154.184 273.613 149.985 277.719 144.055 279.774C143.421 279.389 142.81 279.012 142.224 278.554C138.446 275.604 123.9 259.441 123.951 254.697C123.993 250.839 132.951 244.524 135.781 242.111C128.881 230.147 125.335 219.292 123.317 205.703C119.375 205.307 114.805 205.254 111.008 204.116C109.913 203.787 108.168 203.061 107.719 201.952C105.753 197.094 108.303 176.397 110.118 171.27C113.828 168.008 122.664 169.093 127.407 169.154C131.027 158.572 136.2 149.533 142.804 140.581C140.28 135.686 135.18 132.591 133.59 127.219C133.64 125.605 134.417 124.569 135.39 123.346C138.881 118.956 153.732 105.803 159.056 105.427C162.421 105.189 169.401 113.298 171.855 115.747C180.919 111.152 191.269 107.466 201.424 106.425C202.59 102.366 203.057 98.1747 204.117 94.1156C204.96 90.8846 205.516 89.2683 208.495 87.549Z"/>
	<path fill="#FDFDFD" d="M208.94 90.8409C217.489 90.6591 227.401 91.045 235.799 92.7034C236.833 97.8749 235.867 103.631 237.356 108.625C237.744 109.924 237.939 110.137 239.178 110.687C242.72 112.259 246.835 112.85 250.485 114.292C256.901 116.827 262.77 120.466 268.803 123.77C271.069 121.537 273.41 119.459 275.923 117.504C277.388 116.364 280.832 113.703 282.744 114.17C287.017 115.212 300.551 129.924 302.782 134.04C302.081 137.379 293.775 143.077 291.248 145.781L290.77 146.297C292.658 150.274 295.212 154.011 297.239 157.939C301.151 165.519 303.284 173.196 305.253 181.434C310.506 182.882 316.087 182.923 321.399 184.392C322.123 193.894 322.276 203.583 321.294 213.067C316.161 214.353 310.677 214.324 305.409 214.517C302.044 229.321 298.056 236.379 291.081 249.455C294.62 254.288 299.043 258.485 302.646 263.345C296.681 270.53 288.301 278.681 281.032 284.546C275.837 281.007 271.612 276.213 266.276 272.884C258.865 276.69 251.39 280.433 243.356 282.753C238.414 284.18 233.3 285.002 228.3 286.209C227.244 290.961 227.998 301.355 224.471 304.567C215.192 304.503 205.821 304.459 196.575 303.612C196.291 298.569 196.404 293.242 195.745 288.263C195.539 286.705 195.236 285.515 193.88 284.568C190.596 282.275 185.294 281.601 181.521 280.001C173.613 276.646 166.686 271.995 159.837 266.884C154.446 269.486 149.705 273.307 144.445 276.186C139.833 272.115 129.687 260.369 126.777 255.026C130.768 250.54 135.923 247.044 140.287 242.898C132.426 229.384 128.618 218.659 126.334 203.236C121.229 201.732 115.349 201.404 110.047 200.707C110.305 193.361 110.958 180.237 113.673 173.625C116.105 171.447 126.758 172.513 130.181 172.443C134.45 160.354 139.084 150.841 146.843 140.61C144.629 136.622 141.479 133.599 138.707 130.032C138.185 129.36 137.044 127.823 137.281 126.966C138.363 123.058 154.199 111.018 158.105 108.504C162.91 111.68 166.895 115.986 170.955 120.033C181.958 114.834 192.334 111.169 204.439 109.481C206.099 103.235 206.55 96.9137 208.94 90.8409Z"/>
	<path fill="#010003" d="M214.688 133.706Q216.081 133.644 217.475 133.643Q218.869 133.642 220.262 133.701Q221.654 133.761 223.043 133.881Q224.432 134 225.815 134.18Q227.197 134.36 228.57 134.6Q229.944 134.84 231.305 135.139Q232.667 135.438 234.014 135.797Q235.361 136.155 236.692 136.571Q238.022 136.987 239.333 137.461Q240.644 137.934 241.934 138.464Q243.223 138.994 244.488 139.58Q245.753 140.166 246.992 140.806Q248.23 141.446 249.44 142.139Q250.649 142.832 251.828 143.577Q253.006 144.322 254.151 145.117Q255.296 145.913 256.405 146.757Q257.649 147.697 258.845 148.698Q260.041 149.698 261.186 150.757Q262.331 151.816 263.422 152.931Q264.512 154.045 265.546 155.213Q266.58 156.38 267.554 157.598Q268.529 158.816 269.441 160.08Q270.354 161.345 271.202 162.653Q272.051 163.961 272.833 165.31Q273.615 166.659 274.33 168.046Q275.044 169.432 275.688 170.852Q276.332 172.272 276.905 173.723Q277.478 175.173 277.978 176.65Q278.478 178.127 278.904 179.628Q279.329 181.128 279.68 182.647Q280.03 184.167 280.305 185.702Q280.579 187.237 280.777 188.784C282.846 205.493 277.669 222.181 267.308 235.347C255.551 250.288 239.371 258.108 220.757 260.424C204.318 260.903 188.385 256.054 175.765 245.34C163.059 234.553 154.367 219.281 153.103 202.505C151.776 184.905 157.711 168.388 169.331 155.174C181.495 141.341 196.54 134.954 214.688 133.706Z"/>
	<path fill="#FDFDFD" d="M212.177 137.198C212.334 137.176 212.49 137.146 212.647 137.134Q214.077 137.027 215.511 136.988Q216.945 136.949 218.379 136.977Q219.813 137.006 221.245 137.103Q222.676 137.199 224.101 137.363Q225.526 137.528 226.941 137.759Q228.357 137.991 229.76 138.289Q231.163 138.587 232.551 138.951Q233.938 139.316 235.307 139.745Q236.675 140.175 238.022 140.669Q239.369 141.162 240.69 141.719Q242.012 142.276 243.306 142.895Q244.6 143.514 245.863 144.194Q247.127 144.874 248.356 145.612Q249.586 146.351 250.779 147.147Q251.973 147.943 253.127 148.794Q254.281 149.646 255.394 150.551Q256.545 151.464 257.649 152.433Q258.753 153.403 259.808 154.426Q260.863 155.448 261.866 156.522Q262.868 157.596 263.816 158.719Q264.764 159.841 265.655 161.01Q266.547 162.178 267.379 163.389Q268.211 164.6 268.981 165.85Q269.752 167.101 270.46 168.389Q271.168 169.676 271.811 170.998Q272.454 172.319 273.03 173.67Q273.607 175.021 274.116 176.4Q274.624 177.778 275.064 179.18Q275.504 180.582 275.873 182.004Q276.243 183.426 276.541 184.865Q276.84 186.303 277.066 187.755Q277.293 189.207 277.447 190.668C279.047 206.948 273.301 222.854 262.904 235.31C253.189 246.948 238.249 255.059 223.124 256.498Q221.646 256.65 220.163 256.73Q218.68 256.809 217.194 256.816Q215.709 256.823 214.225 256.757Q212.741 256.69 211.262 256.552Q209.783 256.413 208.313 256.202Q206.842 255.99 205.384 255.707Q203.926 255.424 202.483 255.07Q201.04 254.716 199.617 254.291Q198.193 253.867 196.792 253.373Q195.392 252.879 194.016 252.317Q192.641 251.755 191.296 251.127Q189.95 250.498 188.636 249.804Q187.323 249.11 186.045 248.353Q184.767 247.595 183.528 246.776Q182.289 245.957 181.091 245.078Q179.894 244.199 178.741 243.262C166.736 233.565 158.127 218.743 156.661 203.271C155.089 186.676 160.649 171.059 171.238 158.354C181.749 145.742 195.908 138.702 212.177 137.198Z"/>
	<path fill="#010003" d="M786.342 301.71C798.439 300.082 812.742 301.585 824.55 304.174C829.638 305.289 834.594 306.951 839.653 308.191C844.97 309.493 850.391 310.379 855.682 311.784C896.662 322.662 932.688 346.281 954.225 383.49C978.009 424.583 984.114 474.104 980.498 520.798C979.434 534.537 977.826 548.314 974.247 561.642C975.985 561.964 978.543 562.205 980.021 563.194C981.037 563.874 981.318 564.558 981.432 565.746C981.793 569.517 980.372 575.512 977.986 578.402C975.989 579.346 973.7 578.978 971.542 578.894Q964.805 602.591 957.462 626.107C962.609 631.167 966.564 637.198 969.693 643.685C979.084 663.159 979.764 686.947 972.533 707.23C970.464 713.033 967.522 718.481 964.251 723.688C954.359 739.439 942.382 748.322 925.851 756.275C923.246 772.787 921.985 789.501 919.588 806.039C918.817 811.365 917.622 815.748 913.061 819.025C910.495 820.869 907.589 821.936 904.411 821.826C898.622 821.625 892.747 820.139 887.061 819.054Q875.625 816.861 864.154 814.86C819.122 807.03 774.414 797.467 729.475 789.154C736.457 805.709 744.573 836.045 754.438 849.051C786.718 854.39 894.588 879.575 914.192 901.98C916.46 904.573 918.1 907.671 917.727 911.206C917.302 915.237 914.167 918.609 911.12 921C894.114 934.342 855.752 942.666 834.268 947.4C766.333 962.37 695.999 968.328 626.684 972.655C489.907 981.194 347.895 981.085 211.742 965.11C167.821 959.957 89.3662 949.672 60.5801 912.767Q59.8736 911.868 59.2127 910.935Q58.5517 910.003 57.938 909.038Q57.3242 908.074 56.7591 907.08Q56.194 906.086 55.679 905.065Q55.1639 904.045 54.7003 903Q54.2366 901.955 53.8254 900.888Q53.4142 899.821 53.0565 898.736Q52.6989 897.65 52.3956 896.548Q52.0923 895.445 51.8442 894.329Q51.596 893.213 51.4036 892.086Q51.2113 890.959 51.0751 889.824Q50.9389 888.689 50.8594 887.549Q50.7798 886.408 50.7569 885.265Q50.7341 884.122 50.7681 882.98Q50.8021 881.837 50.8928 880.697Q50.9836 879.558 51.1308 878.424C54.4747 852.941 76.4485 832.554 95.7838 817.739C122.282 798.64 152.686 788.099 184.507 781.999L184.453 712.559C186.983 712.544 189.524 712.647 192.055 712.699L191.798 702.473C186.361 701.619 174.66 703.032 170.848 698.449C168.469 695.591 170.731 690.816 170.897 687.513C166.715 684.518 161.408 682.684 156.881 680.186C139.768 670.739 124.049 654.911 118.505 635.804C116.187 627.813 115.935 619.459 117.194 611.253C119.521 596.08 125.693 581.149 130.158 566.504Q138.281 538.941 147.022 511.567C150.336 501.069 153.112 489.41 158.484 479.774C166.433 465.519 180.319 455.237 195.956 450.945C202.383 449.181 208.904 448.681 215.546 448.724C233.793 448.842 243.71 453.123 260.151 460.56C265.778 463.105 271.707 465.36 277.056 468.459Q278.443 469.266 279.788 470.14Q281.133 471.014 282.434 471.953Q283.734 472.893 284.986 473.895Q286.239 474.898 287.44 475.961Q288.641 477.025 289.788 478.146Q290.936 479.268 292.026 480.444Q293.116 481.621 294.147 482.851Q295.178 484.08 296.146 485.359Q297.115 486.638 298.019 487.963Q298.923 489.288 299.761 490.656Q300.599 492.024 301.368 493.432Q302.137 494.84 302.835 496.284Q303.533 497.729 304.159 499.206Q304.786 500.683 305.338 502.189Q305.89 503.695 306.367 505.227Q306.844 506.759 307.245 508.312C309.452 516.717 310.147 525.733 308.805 534.337C306.438 549.507 300.395 564.093 296.032 578.757L280.452 630.09C277.237 640.718 273.98 655.875 268.429 665.35C260.804 678.369 247.589 684.51 233.515 688.097C232.824 689.527 234.584 690.301 235.186 691.565C235.753 692.755 235.734 694.688 235.746 695.988C235.769 698.333 235.269 700.61 233.464 702.236C229.907 705.441 223.977 704.496 219.638 704.238L219.426 777.988C235.849 779.013 252.137 779.868 268.426 782.411C327.962 791.707 411.413 815.668 469.627 797.502C495.549 789.413 513.314 774.787 525.797 750.767C509.607 747.83 493.571 744.05 477.347 741.177L449.768 736.273C444.319 735.3 438.364 734.645 433.133 732.838C430.653 731.982 428.987 730.529 427.429 728.429C425.437 725.746 424.867 722.935 425.043 719.627C425.636 708.416 429.007 692.969 430.927 681.579Q434.969 656.406 438.68 631.181Q453.915 532.904 468.076 434.467C469.111 426.876 469.281 420.128 476.134 415.26C478.019 413.921 482.555 414.261 484.816 414.456C492.286 415.102 499.853 416.639 507.264 417.787Q529.34 421.178 551.368 424.87C576.776 429.103 602.395 432.545 627.71 437.265C636.717 410.682 652.052 385.798 670.23 364.49C699.504 330.175 740.923 305.38 786.342 301.71Z"/>
	<path fill="#010003" d="M284.575 860.941C285.621 861.472 286.73 861.96 287.715 862.595C287.43 867.993 287.405 873.398 287.341 878.802C286.624 876.352 287.218 874.01 286.641 871.602C285.48 871.915 284.98 873.159 284.296 874.128Q284.147 872.367 283.978 870.607L283.226 870.305L280.9 871.721C281.352 870.516 282.287 869.671 283.147 868.743L282.859 867.94L281.196 867.312C283.35 865.22 283.932 863.86 284.575 860.941Z"/>
	<path fill="#64657A" d="M146.598 523.847C146.67 523.917 146.753 523.977 146.814 524.056C150.212 528.485 153.755 532.475 157.649 536.469L155.601 543.186C152.067 540.807 147.393 534.762 144.709 531.282C145.227 528.766 145.9 526.317 146.598 523.847Z"/>
	<path fill="#64657A" d="M138.004 552.76Q143.885 557.995 148.699 564.226L147.144 572.097C143.301 567.979 139.477 563.882 135.905 559.523C136.524 557.248 137.29 555.006 138.004 552.76Z"/>
	<path fill="#64657A" d="M129.438 579.699C133.444 583.175 136.836 588.509 139.759 592.906C139.436 595.458 139.032 597.848 138.354 600.336C134.758 595.995 131.27 591.445 127.202 587.535L129.438 579.699Z"/>
	<path fill="#64657A" d="M155.973 494.215C159.63 497.4 163.172 502.38 165.951 506.384C165.372 509.219 164.425 511.935 163.517 514.678C160.908 511.681 157.413 508.378 155.635 504.809C153.636 500.795 154.528 498.145 155.973 494.215Z"/>
	<path fill="#FDFDFD" d="M280.055 581.986C283.437 583.825 286.558 586.287 289.547 588.694C288.401 592.376 287.449 596.073 286.55 599.823C283.005 597.578 279.659 595.128 276.302 592.614C277.71 589.111 278.909 585.582 280.055 581.986Z"/>
	<path fill="#FDFDFD" d="M270.975 607.195L281.695 614.272C280.72 617.812 279.487 621.277 278.303 624.751C276.32 624.926 270.399 619.613 268.562 618.189L270.975 607.195Z"/>
	<path fill="#FDFDFD" d="M286.56 554.166C290.393 556.494 293.978 559.641 297.661 562.254C296.564 566.1 295.407 569.899 294.107 573.681L283.546 565.994Q285.089 560.089 286.56 554.166Z"/>
	<path fill="#64657A" d="M184.521 457.85C185.151 457.957 184.811 457.822 185.43 458.466C183.605 463.632 179.576 468.875 176.935 473.768C175.104 477.161 173.74 480.785 171.821 484.119L171.66 484.143L170.605 481.843L165.218 475.925C170.563 468.487 176.807 462.751 184.521 457.85Z"/>
	<path fill="#64657A" d="M120.932 608.995L128.894 616.179C125.494 628.952 126.057 641.711 131.39 653.975L131.103 654.015C130.002 653.277 129.179 652.519 128.398 651.437C120.228 640.12 118.506 622.377 120.932 608.995Z"/>
	<path fill="#FDFDFD" d="M944.834 576.339C947.729 576.45 950.605 576.837 953.482 577.167Q948.625 593.461 944.123 609.857C943.891 610.805 944.067 610.846 943.221 611.443C941.255 611.287 939.413 609.884 937.742 608.899C940.484 598.186 942.584 587.168 944.834 576.339Z"/>
	<path fill="#64657A" d="M246.458 589.159C253.729 594.493 261.506 599.404 268.333 605.285C267.662 609.102 266.695 612.751 265.584 616.461C258.409 611.355 251.158 606.367 244.023 601.204C244.619 597.153 245.576 593.156 246.458 589.159Z"/>
	<path fill="#64657A" d="M262.462 535.626C269.552 541.242 276.471 547.042 283.882 552.238L280.713 564.167C273.463 558.41 265.917 553.038 258.728 547.195C260.287 543.489 261.3 539.476 262.462 535.626Z"/>
	<path fill="#64657A" d="M254.406 562.683C262.07 568.579 269.867 574.311 277.48 580.27Q275.828 585.738 274.033 591.16C266.481 585.07 258.443 579.537 250.462 574.031C251.978 570.339 253.139 566.468 254.406 562.683Z"/>
	<path fill="#64657A" d="M187.945 715.996C193.962 716.304 199.942 716.217 205.962 716.115L205.904 737.787C200.215 738.631 193.787 738.09 188.027 738.05L187.945 715.996Z"/>
	<path fill="#64657A" d="M187.707 853.099C197.407 855.315 206.789 854.278 216.476 852.759C216.599 857.337 217.703 863.655 214.624 867.397C210.384 869.514 206.208 870.1 201.516 870.251C197.447 870.382 191.788 870.606 188.66 867.671C186.647 863.719 187.585 857.468 187.707 853.099Z"/>
	<path fill="#64657A" d="M272.196 469.843C277.15 470.522 281.5 474.614 285.089 477.802C279.107 478.461 272.991 478.15 267.069 479.159C255.309 481.164 246.404 487.47 239.529 497.049L237.3 500.988C235.077 499.693 232.751 498.57 230.458 497.404Q230.694 496.868 230.944 496.338C236.927 483.725 247.928 475.892 261.259 472.216C264.562 471.306 268.303 471.307 271.472 470.125C271.714 470.034 271.955 469.937 272.196 469.843Z"/>
	<path fill="#FDFDFD" d="M264.875 634.241C267.395 636.7 270.766 638.575 273.562 640.781C271.709 647.243 270.076 654.085 267.202 660.177C261.639 671.971 251.675 678.634 239.737 683.02C237.055 683.774 234.285 684.03 231.526 684.358C252.349 671.536 258.361 657.029 264.875 634.241Z"/>
	<path fill="#FDFDFD" d="M173.945 689.405C182.86 689.372 191.964 690.35 200.889 690.674C209.793 690.998 218.744 690.641 227.633 691.078C229.009 691.146 230.272 691.129 231.527 691.786C231.986 692.384 232.385 692.923 232.547 693.678C233.082 696.176 232.404 698.751 231.138 700.893C227.197 702.112 182.111 698.87 176.464 697.686C175.406 697.464 174.257 697.251 173.702 696.227C172.548 694.098 173.412 691.601 173.945 689.405Z"/>
	<path fill="#FDFDFD" d="M283.014 480.567C284.171 480.628 285.458 480.635 286.571 480.971C291.634 482.498 296.731 492.092 299.096 496.564C307.48 512.41 307.349 529.804 302.206 546.616C298.419 544.062 294.738 541.601 291.212 538.684C292.503 534.746 293.518 530.619 294.258 526.544C297.503 508.686 293.14 495.278 283.014 480.567Z"/>
	<path fill="#FDFDFD" d="M956.818 577.483C958.721 577.777 960.663 577.929 962.578 578.139C960.669 586.993 957.55 595.828 955.043 604.545C950.322 620.96 945.9 637.726 939.691 653.648C935.39 653.035 931.429 653.258 927.131 653.654C927.927 649.106 929.249 644.594 930.377 640.116C931.649 633.746 932.442 624.878 935.513 619.221L936.337 619.259C937.373 623.018 933.29 629.44 932.721 633.419C932.496 634.997 932.936 635.818 933.863 637.042C935.783 638.134 938.028 637.819 940.175 637.793C942.819 629.337 944.794 620.539 947.086 611.967Q951.807 594.684 956.818 577.483Z"/>
	<path fill="#FDFDFD" d="M924.895 559.484C931.473 559.195 938.281 560.426 944.802 561.253Q961.397 563.358 977.944 565.814C977.461 569.282 976.754 572.413 975.622 575.727C969.279 575.213 927.94 571.548 924.65 570.151C923.475 569.651 923.251 569.1 922.963 567.874C922.349 565.263 923.622 561.725 924.895 559.484Z"/>
	<path fill="#FDFDFD" d="M933.431 574.845Q937.282 575.313 941.148 575.636C936.191 601.67 929.521 627.204 923.574 653.012C923.302 654.195 923.304 654.803 922.241 655.502L916.143 658.604C918.824 643.141 922.393 627.916 925.692 612.586C928.393 600.032 930.712 587.4 933.431 574.845Z"/>
	<path fill="#64657A" d="M198.293 632.726C198.664 632.727 199.071 632.57 199.406 632.729C200.105 633.06 202.843 648.398 203.316 649.991C207.669 664.651 214.59 676.951 225.584 687.668L219.569 687.723L211.434 687.694C208.822 684.151 205.911 680.87 203.533 677.147C195.221 664.133 192.537 648.576 190.34 633.563C192.956 633.124 195.651 632.974 198.293 632.726Z"/>
	<path fill="#FDFDFD" d="M231.712 587.284C235.665 587.024 239.611 587.045 243.57 587.049C242.858 591.424 241.991 595.676 240.825 599.954C226.324 599.806 211.644 600.666 197.125 600.891L184.828 601C185.984 596.816 187.435 592.702 188.795 588.58C203.081 588.573 217.426 587.712 231.712 587.284Z"/>
	<path fill="#FDFDFD" d="M233.818 532.771C240.666 532.582 252.97 531.235 259.174 533.498C260.204 536.188 257.16 542.648 256.181 545.485C246.322 545.34 236.429 545.601 226.573 545.854Q213.802 546.011 201.031 545.968Q202.661 539.383 204.764 532.933Q219.292 533.005 233.818 532.771Z"/>
	<path fill="#FDFDFD" d="M228.484 559.731C232.493 559.658 248.774 558.493 251.579 560.916C251.38 564.67 249.446 568.819 248.23 572.385C237.939 571.588 226.927 572.744 216.595 573.124C208.809 573.713 200.91 573.671 193.106 573.819L196.569 560.508C207.205 560.507 217.853 560.05 228.484 559.731Z"/>
	<path fill="#FDFDFD" d="M877.322 594.198C889.287 592.917 902.82 595.444 913.7 600.474C898.559 596.594 884.629 594.339 869.358 599.22C850.314 605.306 834.933 621.316 825.998 638.799C814.559 661.182 813.222 685.96 820.977 709.683C823.983 718.444 827.804 725.697 832.943 733.344L833.033 732.678L832.478 732.729L832.81 733.345C820.979 723.161 813.579 702.187 811.965 687.047C809.44 663.367 816.816 638.092 831.829 619.658C843.605 605.198 858.57 596.049 877.322 594.198Z"/>
	<path fill="#64657A" d="M247.476 548.235C249.691 548.153 251.909 548.332 254.121 548.452C261.135 552.982 267.601 558.45 274.305 563.431C280.726 568.204 287.444 572.526 293.415 577.881C292.605 580.576 291.705 583.251 290.846 585.93C283.346 578.349 273 572.49 264.411 566.098C260.171 562.837 255.98 559.481 251.513 556.535C233.57 555.999 215.599 557.048 197.658 557.214L200.006 549.05C215.833 549.1 231.652 548.554 247.476 548.235Z"/>
	<path fill="#64657A" d="M208.288 521.69C217.027 521.408 254.96 520.363 260.985 522.161C268.086 524.28 294.204 544.878 301.02 550.516C300.171 553.493 299.205 556.305 298.005 559.159C294.908 557.214 292.031 554.62 289.116 552.39Q280.026 545.509 271.064 538.461C267.381 535.556 263.372 531.717 258.888 530.157C251.567 527.61 216.255 529.836 205.776 529.691L208.288 521.69Z"/>
	<path fill="#64657A" d="M221.148 603.752Q230.878 603.418 240.614 603.406C249.634 608.719 270.326 622.725 277.479 629.73C276.783 632.719 275.711 635.673 274.775 638.597C268.906 631.952 260.148 627.13 252.789 622.223C247.874 618.822 242.281 613.912 236.703 611.915C231.579 610.082 191.075 612.413 181.929 612.265C182.621 609.482 183.239 606.674 184.356 604.025L221.148 603.752Z"/>
	<path fill="#64657A" d="M275.618 481.312C276.087 481.344 276.556 481.384 277.022 481.446C279.675 481.803 281.745 484.184 283.269 486.225C291.312 497 293.158 511.839 291.478 524.798C291.072 527.927 290.601 534.384 287.995 536.398L286.407 535.613Q276.942 528.224 267.125 521.311C272.136 508.737 274.687 494.738 275.618 481.312Z"/>
	<path fill="#64657A" d="M233.214 575.715C237.707 575.398 242.286 575.489 246.793 575.414C247.997 576.904 281.432 600.24 285.49 602.941L282.896 611.343L258.046 593.913C254.016 591.053 249.323 586.252 244.676 584.695C237.157 582.176 200.288 585.274 189.774 585.494L192.338 577.027C205.925 577.092 219.628 576.219 233.214 575.715Z"/>
	<path fill="#FDFDFD" d="M195.003 702.596Q205.72 703.156 216.413 704.072C216.86 737.872 215.965 771.712 215.974 805.519L216.014 834.899C216.045 838.874 216.848 843.928 216.053 847.746C215.844 848.75 215.697 848.595 214.896 849.121L209.229 850.432C209.785 804.896 209.356 759.284 209.375 713.739C204.713 712.88 200.067 712.97 195.347 712.938C194.989 709.491 195.01 706.057 195.003 702.596Z"/>
	<path fill="#64657A" d="M210.535 452.229L210.854 452.242L210.981 452.542C203.539 457.701 198.646 462.578 194.073 470.442C189.741 477.891 187.426 487.218 184.938 495.434L176.512 523.448L162.1 572.896C156.401 591.951 149.844 610.918 147.34 630.739C145.528 645.083 146.172 658.43 149.853 672.409C148.282 671.268 146.811 669.967 145.319 668.726C141.023 665.29 139.014 660.444 138.393 655.076C137.505 647.403 138.363 639.408 139.8 631.858C141.643 622.169 144.409 612.65 147.004 603.142Q154.383 576.281 162.591 549.661Q170.284 523.851 179.053 498.387C181.678 490.728 184.058 482.794 187.296 475.378C190.832 467.279 195.289 460.217 200.801 453.33C204.016 452.72 207.279 452.506 210.535 452.229Z"/>
	<path fill="#64657A" d="M240.051 617.69C247.499 622.381 254.688 627.636 261.915 632.668C256.685 654.472 251.9 665.438 234.308 679.404C231.719 681.312 229.137 683.026 226.345 684.625C222.533 680.303 219.171 675.663 215.849 670.964C230.476 656.542 236.077 637.17 240.051 617.69Z"/>
	<path fill="#64657A" d="M242.607 459.118C245.167 458.952 247.725 459.248 250.277 459.451Q248.652 459.864 247.055 460.37Q245.457 460.876 243.891 461.474Q242.325 462.072 240.796 462.76Q239.268 463.448 237.782 464.223Q236.295 464.998 234.857 465.858Q233.418 466.718 232.032 467.66Q230.645 468.602 229.316 469.623Q227.986 470.644 226.718 471.74C222.106 475.707 218.821 480.145 216.357 485.714C211.577 496.516 208.737 508.376 205.405 519.696Q197.311 546.474 189.886 573.446C185.787 588.053 181.098 602.379 177.414 617.115C175.756 623.75 173.918 630.481 173.487 637.332C172.527 652.624 181.26 675.042 191.358 686.458C196.738 687.636 202.303 686.483 207.629 687.696C198.03 688.587 187.545 687.193 177.918 686.418C173.688 677.7 170.011 667.879 167.939 658.427C166.639 652.497 165.885 646.265 166.827 640.23C170.166 618.847 177.765 597.714 183.666 576.91L200.095 520.317C203.064 510.146 205.644 499.776 209.068 489.751C210.445 485.719 212.047 481.07 214.414 477.494C220.399 468.452 232.099 461.265 242.607 459.118Z"/>
	<path fill="#FDFDFD" d="M900.725 610.162C908.642 608.918 917.508 610.298 925.234 612.06C920.122 612.867 914.967 612.83 909.851 613.85C894.996 616.811 880.519 626.132 870.79 637.609Q870.097 638.421 869.424 639.249Q868.751 640.077 868.099 640.922Q867.447 641.767 866.815 642.627Q866.184 643.487 865.573 644.363Q864.963 645.239 864.375 646.129Q863.786 647.019 863.22 647.924Q862.653 648.828 862.109 649.746Q861.565 650.664 861.044 651.595Q860.522 652.526 860.024 653.47Q859.525 654.414 859.05 655.369Q858.575 656.325 858.123 657.292Q857.671 658.259 857.244 659.236Q856.816 660.214 856.412 661.202Q856.008 662.19 855.629 663.188Q855.25 664.185 854.895 665.192Q854.54 666.198 854.21 667.213Q853.88 668.228 853.575 669.251Q853.27 670.273 852.99 671.303Q852.71 672.333 852.456 673.37Q852.201 674.406 851.972 675.448Q851.743 676.491 851.54 677.538Q851.336 678.586 851.159 679.638Q850.981 680.691 850.829 681.747Q850.678 682.803 850.552 683.863Q850.426 684.923 850.326 685.985Q850.226 687.048 850.153 688.113Q850.079 689.177 850.031 690.243Q849.984 691.31 849.962 692.377Q849.941 693.444 849.945 694.511Q849.95 695.578 849.981 696.645Q850.012 697.712 850.069 698.777Q850.126 699.843 850.209 700.907C851.842 720.201 859.597 736.186 874.335 748.716C876.992 750.833 880.043 752.627 882.881 754.505C876.991 753.304 872.009 751.323 867.117 747.807C852.548 737.335 843.969 721.287 841.273 703.709C837.801 681.074 844.458 655.245 858.127 636.915C868.552 622.934 883.285 612.651 900.725 610.162Z"/>
	<path fill="#FDFDFD" d="M204.676 740.753L205.103 740.746C205.258 740.986 205.485 741.194 205.568 741.468C206.148 743.39 205.533 764.113 205.528 767.7L205.519 818.009C205.543 828.81 205.809 839.671 205.389 850.463C202.159 852.477 194.136 850.662 190.456 850.007C189.839 849.74 189.459 849.542 188.963 849.067C188.447 848.574 188.586 848.804 188.539 848.062C187.833 836.939 188.481 825.533 188.443 814.376L188.15 741.459C193.684 741.431 199.157 741.127 204.676 740.753Z"/>
	<path fill="#FDFDFD" d="M194.472 454.852L195.528 454.985C194.51 458.855 189.895 463.053 187.925 466.71C184.976 472.185 182.842 478.56 180.667 484.393C169.9 513.259 161.034 542.95 152.542 572.549C146.936 592.086 138.561 616.71 135.905 636.545C135.091 642.626 135.01 648.741 134.888 654.865C129.476 640.156 127.87 630.986 131.97 615.806C129.049 611.898 125.42 608.353 122.122 604.752C123.373 600.071 124.906 595.452 126.344 590.824C129.544 594.44 137.098 604.414 141.035 605.792C142.219 603.628 142.291 600.394 142.642 597.952C142.88 596.904 143.142 595.828 143.237 594.755C143.729 589.248 134.507 580.009 131.106 576.08C132.139 571.8 133.674 567.631 135.08 563.461C138.917 568.082 143.464 573.854 148.631 576.936C150.074 572.444 151.233 567.652 151.882 562.979C148.16 557.923 143.392 553.669 139.125 549.075C140.353 544.547 141.886 540.128 143.474 535.716C148.101 540.268 152.233 545.402 157.114 549.675Q159.005 542.792 160.487 535.809C156.813 530.399 151.489 526.273 147.901 520.745Q149.75 513.678 152.462 506.895C155.878 510.558 159.298 514.863 163.097 518.097C164.025 518.887 164.533 519.267 165.781 519.167Q167.374 516.573 168.214 513.648C171.242 503.429 161.807 498.928 157.839 491.019C157.773 490.888 157.713 490.754 157.649 490.621C159.098 486.425 160.814 482.669 163.315 478.993C166.432 482.241 169.092 485.836 172.676 488.616C177.103 479.803 186.115 459.297 194.472 454.852Z"/>
	<path fill="#FDFDFD" d="M253.297 461.67C258 463.105 262.495 465.506 266.944 467.588C260.566 468.693 254.215 470.917 248.456 473.855C238.294 479.04 230.176 487.16 226.633 498.158C230.041 500.958 234.239 502.894 238.131 504.942Q239.919 502.164 241.783 499.437C249.446 488.403 259.471 483.575 272.42 481.278C271.969 486.63 271.217 491.886 270.391 497.189Q268.178 508.407 264.848 519.345C257.109 517.429 248.392 518.365 240.463 518.382Q224.867 518.349 209.272 518.515C213.093 506.747 215.061 493.36 221.657 482.733C228.471 471.755 240.901 464.481 253.297 461.67Z"/>
	<path fill="#64657A" d="M280.9 871.721L283.226 870.305L283.978 870.607Q284.147 872.367 284.296 874.128C284.445 877.245 284.965 880.151 282.663 882.657C271.205 895.131 232.353 898.984 215.186 899.538C188.409 900.402 161.084 899.39 135.293 891.459C129.526 889.686 123.267 887.773 118.787 883.569C118.518 879.15 118.714 874.64 118.73 870.21C130.353 878.841 145.686 881.725 159.743 883.892C187.665 888.196 257.649 888.745 280.9 871.721Z"/>
	<path fill="#FDFDFD" d="M222.133 614.724C227.128 614.487 232.183 614.441 237.168 614.836C234.479 634.736 227.387 652.904 214.159 668.125C207.577 655.945 204.615 642.86 202.213 629.368C197.269 629.594 192.352 630.279 187.447 630.91C187.56 638.986 189.414 647.121 191.354 654.933C194.661 665.626 198.12 675.122 204.721 684.291C200.507 684.058 196.29 683.375 192.105 682.831C190.766 680.886 189.436 678.934 188.233 676.901C184.697 670.927 182 664.605 179.871 658.003C174.283 640.67 176.494 632.608 180.856 615.447Q201.499 615.326 222.133 614.724Z"/>
	<path fill="#FDFDFD" d="M929.398 657.137C934.437 656.532 939.866 657.352 944.328 659.838C949.189 662.546 952.345 667.163 953.816 672.466C956.395 681.759 953.676 692.669 948.84 700.781C944.053 708.811 936.628 714.602 927.581 716.954C922.176 717.728 916.668 716.933 912.04 713.902C906.857 710.507 904.075 704.809 902.885 698.886Q902.709 697.974 902.578 697.055Q902.448 696.136 902.363 695.212Q902.278 694.287 902.239 693.36Q902.2 692.432 902.206 691.504Q902.213 690.576 902.266 689.649Q902.319 688.722 902.417 687.799Q902.516 686.876 902.66 685.959Q902.804 685.042 902.994 684.133Q903.183 683.224 903.417 682.326Q903.651 681.427 903.929 680.542Q904.208 679.656 904.53 678.785Q904.851 677.914 905.216 677.061Q905.58 676.207 905.987 675.372Q906.393 674.537 906.84 673.724Q907.287 672.91 907.774 672.12Q908.261 671.329 908.786 670.564C913.781 663.265 920.7 658.79 929.398 657.137Z"/>
	<path fill="#010003" d="M933.154 665.557C935.765 665.237 938.097 665.274 940.59 666.226C943.986 667.524 946.428 669.701 947.885 673.055C950.497 679.067 949.394 686.097 946.901 691.958C943.862 699.106 939.123 704.24 931.827 707.133C929.057 707.571 926.71 707.464 924.039 706.527C920.723 705.365 918.346 703.036 916.964 699.821C914.347 693.736 915.119 686.114 917.743 680.145C920.823 673.14 925.969 668.231 933.154 665.557Z"/>
	<path fill="#FDFDFD" d="M934.405 668.523C935.885 668.487 937.519 668.738 938.911 669.24C941.745 670.262 943.999 672.121 945.148 674.948C947.102 679.754 945.969 685.636 944.039 690.254C941.465 696.414 937.15 701.294 930.931 703.88C928.695 704.05 926.755 704.165 924.684 703.177C922.21 701.998 920.572 700.004 919.724 697.414C917.842 691.666 919.365 684.353 922.121 679.138C924.899 673.882 928.674 670.196 934.405 668.523Z"/>
	<path fill="#64657A" d="M882.562 600.183C895.645 598.446 908.561 602.779 921.162 605.519L920.926 605.359L923.147 605.847L923.62 606.609C921.377 607.408 916.793 606.57 914.288 606.43C900.776 605.671 888.629 607.883 876.927 614.928C856.942 626.96 845.108 647.87 839.594 670.025C833.988 692.549 837.16 714.597 849.071 734.522C852.872 740.363 857.805 744.763 863.19 749.116C856.917 747.771 851.016 746.046 845.812 742.145C831.978 731.774 822.354 708.941 820.112 692.238Q819.973 691.165 819.86 690.089Q819.747 689.014 819.66 687.936Q819.573 686.857 819.513 685.777Q819.452 684.697 819.418 683.616Q819.384 682.535 819.376 681.453Q819.368 680.372 819.386 679.29Q819.404 678.209 819.449 677.128Q819.494 676.047 819.565 674.968Q819.635 673.889 819.733 672.811Q819.83 671.734 819.953 670.659Q820.076 669.585 820.226 668.513Q820.375 667.442 820.55 666.375Q820.726 665.307 820.927 664.245Q821.128 663.182 821.355 662.124Q821.582 661.067 821.835 660.015Q822.088 658.963 822.366 657.918Q822.644 656.873 822.948 655.834Q823.251 654.796 823.58 653.766Q823.909 652.735 824.262 651.713Q824.616 650.691 824.994 649.677Q825.373 648.664 825.775 647.66Q826.178 646.656 826.606 645.663Q827.033 644.669 827.484 643.686Q827.935 642.703 828.41 641.731Q828.885 640.759 829.384 639.799Q829.882 638.839 830.404 637.892Q830.926 636.944 831.47 636.01Q832.015 635.075 832.582 634.154Q833.149 633.233 833.739 632.326Q834.328 631.419 834.939 630.527Q835.55 629.634 836.183 628.757Q836.816 627.88 837.47 627.018C848.996 612.073 863.779 602.552 882.562 600.183Z"/>
	<path fill="#FDFDFD" d="M788.283 305.207C799.815 303.683 814.927 305.725 826.164 308.455C865.451 318 900.354 345.787 921.276 380.05C952.327 430.902 958.351 500.497 944.491 557.692C942.505 557.513 940.526 557.153 938.555 556.851C944.264 531.641 945.719 504.124 944.105 478.383C940.99 428.701 923.739 380.667 885.705 347.099Q881.022 343.023 876.011 339.358Q871 335.692 865.697 332.463Q860.394 329.235 854.837 326.466Q849.28 323.697 843.509 321.408Q841.958 320.786 840.392 320.203Q838.825 319.62 837.245 319.077Q835.664 318.534 834.07 318.031Q832.477 317.528 830.871 317.065Q829.265 316.603 827.647 316.181Q826.03 315.759 824.403 315.379Q822.776 314.998 821.139 314.659Q819.503 314.32 817.858 314.022Q816.214 313.724 814.562 313.468Q812.911 313.212 811.253 312.997Q809.596 312.783 807.933 312.611Q806.271 312.439 804.605 312.308Q802.939 312.178 801.27 312.09Q799.601 312.002 797.93 311.957Q796.26 311.911 794.588 311.907Q792.917 311.904 791.246 311.943Q789.576 311.982 787.906 312.063Q786.237 312.144 784.57 312.267Q782.904 312.391 781.241 312.556Q779.578 312.721 777.919 312.929Q776.261 313.136 774.608 313.386Q772.956 313.635 771.31 313.926Q769.664 314.217 768.026 314.55Q766.389 314.882 764.76 315.256Q763.131 315.63 761.512 316.045Q759.893 316.46 758.285 316.916Q756.677 317.372 755.081 317.869Q753.486 318.365 751.903 318.902Q750.32 319.438 748.751 320.015Q747.183 320.591 745.629 321.207Q744.075 321.823 742.538 322.478Q741 323.133 739.48 323.827C690.336 345.777 656.623 389.379 637.761 438.73L631.352 437.645C640.383 411.587 655.413 387.237 673.479 366.488C703.017 332.563 742.728 308.38 788.283 305.207Z"/>
	<path fill="#FDFDFD" d="M216.685 452.588C225.34 451.886 232.914 453.202 241.047 456.174C239.051 456.742 237.045 457.307 235.102 458.04C223.471 462.43 213.953 470.362 208.801 481.797C204.649 491.013 202.313 501.471 199.473 511.16L184.246 563.663L171.951 606.146C168.71 617.281 164.254 629.513 163.446 641.127C162.551 653.985 166.133 665.284 170.646 677.128C171.528 679.679 172.647 682.196 173.655 684.702Q163.433 680.057 153.805 674.281C149.359 660.894 148.637 646.899 150.253 632.957C153.278 606.862 163.126 581.005 170.406 555.813Q177.86 529.676 185.85 503.697C188.633 494.554 191.108 485.081 194.566 476.172C198.729 465.447 206.156 457.264 216.685 452.588Z"/>
	<path fill="#64657A" d="M675.633 778.413C683.637 781.417 693.595 782.513 702.041 784.237C707.821 796.613 712.228 809.455 716.969 822.245Q725.791 845.553 734.358 868.957C729.774 868.088 725.216 866.781 720.684 865.661C700.313 860.089 679.56 855.497 659.083 850.253C665.471 826.548 669.742 802.263 675.633 778.413Z"/>
	<path fill="#64657A" d="M784.761 315.698C800.368 313.858 816.745 316.981 831.835 320.857C815.787 322.313 800.87 322.618 785.194 327.332C736.391 342.007 695.152 381.7 671.252 425.832C668.37 431.517 665.79 437.39 663.172 443.201C655.938 441.527 648.394 440.308 641.033 439.299C649.21 416.343 662.279 394.78 677.802 376.1C705.159 343.176 741.348 319.671 784.761 315.698Z"/>
	<path fill="#FDFDFD" d="M219.621 842.811C232.195 843.595 245.015 845.096 257.325 847.822C266.08 849.761 279.441 852.829 284.575 860.941C283.932 863.86 283.35 865.22 281.196 867.312C270.676 875.629 255.208 878.274 242.218 880.28C210.783 885.135 171.297 884.721 140.398 876.364C134.341 874.726 126.92 872.494 121.894 868.609C120.104 867.226 118.562 865.403 118.412 863.052C118.284 861.053 119.119 859.407 120.493 858.015C130.724 847.65 169.504 843.611 184.611 843.097C184.478 848.582 182.603 865.99 186.152 869.596C189.598 873.097 195.857 873.619 200.537 873.683C206.075 873.757 213.828 873.31 217.913 869.138C221.506 865.468 219.781 848.414 219.621 842.811Z"/>
	<path fill="#64657A" d="M855.749 315.951Q857.389 316.136 859.001 316.491C893.754 324.142 928.195 349.087 947.427 378.792C981.087 430.781 983.758 502.178 971.13 561.213Q959.375 559.839 947.637 558.322C958.494 517.272 957.007 461.04 943.524 420.755C927.843 373.904 900.459 338.281 855.749 315.951Z"/>
	<path fill="#64657A" d="M705.621 784.713C712.278 785.436 719.034 787.114 725.57 788.563C735.016 808.796 739.28 831.864 751.298 850.87C760.906 866.063 777.351 878.608 785.475 893.714C784.502 894.475 783.517 895.262 782.477 895.931C779.655 897.746 776.418 897.756 773.203 897.334C767.424 896.576 761.611 894.808 755.959 893.392Q742.973 890.125 729.951 887.004L623.878 860.653C614.611 858.348 589.954 853.357 583.052 849.668C581.615 848.9 580.478 848.045 579.983 846.445C580.196 846.233 580.381 845.987 580.623 845.809C581.296 845.317 621.645 835.472 625.883 834.585C628.381 834.063 630.95 833.633 633.509 833.637C641.427 833.648 651.199 836.766 659.101 838.305L655.643 851.889C660.839 854.698 733.976 872.674 736.328 871.904C736.936 871.705 737.061 871.235 737.378 870.732C736.248 860.821 726.924 839.609 723.074 829.434C717.43 814.522 712.492 799.114 705.621 784.713Z"/>
	<path fill="#64657A" d="M478.509 417.473C489.747 417.187 501.689 420.145 512.778 421.935L573.559 431.934Q739.385 457.765 904.394 488.386C909.925 489.405 938.655 493.927 940.583 495.338C941.09 496.407 940.97 496.983 940.777 498.13C936.099 499.084 880.763 487.795 871.04 486.197Q730.912 461.771 590.24 440.694Q560.318 436.165 530.506 430.962C516.759 428.638 502.677 425.928 488.8 424.588C486.659 424.381 484.166 424.43 482.247 425.536C479.524 427.107 478.145 431.265 477.49 434.131C476.356 439.095 475.921 444.356 475.234 449.409Q473.547 461.959 471.665 474.481Q464.107 523.148 457.467 571.948C451.935 610.093 445.563 648.152 440.772 686.395C439.657 695.292 437.434 704.389 436.788 713.271C436.566 716.328 437.15 718.622 438.869 721.17C440.661 723.828 442.597 725.035 445.547 726.139C454.773 729.59 465.926 730.59 475.67 732.373Q500.928 736.933 526.104 741.928L764.296 786.782Q831.634 798.961 898.682 812.646C900.969 812.016 903.282 811.137 905.16 809.646C906.845 808.309 907.861 806.646 908.536 804.619C910.343 799.195 910.585 792.87 911.294 787.201L914.826 759.088L922.465 757.063C920.583 768.373 919.285 779.871 918.047 791.27C917.402 797.221 917.263 803.824 915.832 809.624C914.884 813.468 912.54 816.01 909.093 817.854C906.274 819.362 901.725 818.416 898.649 817.899C890.687 816.561 882.784 814.817 874.834 813.397L758.066 791.363L582.801 757.834L488.099 739.977L456.227 734.015C449.314 732.76 442.053 731.856 435.301 729.934C430.809 728.655 430.132 727.567 427.994 723.673C427.581 714.73 430.18 704.998 431.674 696.18Q434.405 679.565 436.908 662.913Q449.695 583.017 461.284 502.938L468.992 449.999C470.085 442.395 470.845 430.708 473.192 423.683C474.124 420.895 476.241 419.179 478.509 417.473Z"/>
	<path fill="#64657A" d="M914.353 616.669C916.685 616.339 919.237 616.423 921.601 616.313C917.868 629.95 913.93 648.034 912.112 661.945C911.061 662.864 909.992 663.784 909.004 664.772C902.275 671.505 898.796 682.055 898.746 691.449C898.704 699.449 901.396 708.402 907.207 714.098C911.588 718.392 918.096 720.517 924.176 720.358C932.763 720.135 941.097 715.098 946.811 708.907C954.148 700.957 958.609 688.961 958.029 678.136C957.548 669.167 953.416 663.064 946.886 657.295C950.808 648.082 953.573 638.374 956.373 628.776C970.145 646.176 975.808 667.286 973.301 689.123C971.739 702.457 965.817 716.12 958.09 727.014C948.071 741.139 931.57 752.721 914.3 755.557C900.84 757.768 889.282 755.196 878.214 747.223C864.951 737.669 856.778 722.206 854.313 706.235C850.979 684.634 856.954 661.635 869.911 644.071C880.706 629.439 896.304 619.337 914.353 616.669Z"/>
	<path fill="#FDFDFD" d="M750.699 514.649C802.373 524.548 854.655 531.153 906.353 540.802C903.248 557.806 899.566 574.742 896.24 591.707C872.437 589.404 857.526 592.127 838.634 607.652C824.68 604.946 810.236 603.352 796.163 601.136C784.932 599.367 773.808 596.9 762.574 595.231C760.824 594.971 758.608 594.451 756.863 594.858C756.074 595.041 756.043 595.422 755.635 596.044L755.941 596.821C760.094 599.807 824.741 609.208 834.992 611.056C828.477 617.919 823.354 625.031 818.56 633.168C810.146 631.209 801.25 630.254 792.72 628.775C780.199 626.605 767.564 623.967 754.974 622.294C753.727 622.128 752.558 622.042 751.353 622.468C750.566 622.747 750.804 622.726 750.422 623.605L751.132 624.794C753.974 626.678 807.536 634.334 817.004 636.399C814.854 642.729 812.72 649.028 811.141 655.53C795.161 653.119 779.325 649.779 763.351 647.297C759.626 646.718 755.94 645.498 752.186 645.193C750.537 645.059 749.159 645.092 747.639 645.809L747.427 646.631C749.579 649.164 752.577 649.193 755.649 649.654Q782.977 654.213 810.224 659.23C808.85 665.648 808.338 671.746 808.17 678.287C789.09 675.725 768.671 670.892 749.735 668.962C747.724 668.757 744.62 668.388 742.962 669.74C743.046 669.869 743.114 670.012 743.215 670.129C744.427 671.53 747.353 672.194 749.093 672.603C755.53 674.117 762.486 674.749 769.038 675.735Q788.612 678.555 808.099 681.92C808.741 690.727 810.302 699.079 812.88 707.524C806.027 706.002 744.33 693.844 742.172 694.46C740.892 694.826 740.483 695.156 739.815 696.28L740.201 697.046C743.844 699.206 804.688 709.314 814.966 711.495C817.046 717.411 819.981 722.254 823.395 727.463C809.289 725.326 795.304 722.436 781.242 720.026C760.276 716.431 739.173 713.159 718.321 708.973C719.621 697.819 721.807 686.72 723.514 675.617Q729.462 635.217 736.699 595.027C741.379 568.276 745.084 541.219 750.699 514.649Z"/>
	<path fill="#010003" d="M764.129 536.297C773.32 536.017 790.527 539.603 800.197 541.27C800.06 546.372 798.111 570.4 795.874 573.601C786.531 573.569 768.873 569.551 758.809 568.094C759.597 557.453 762.096 546.767 764.129 536.297Z"/>
	<path fill="#FDFDFD" d="M766.88 539.867Q781.738 542.502 796.735 544.168Q795.473 557.301 793.146 570.288Q778.031 567.612 762.878 565.16C764.177 556.709 765.325 548.28 766.88 539.867Z"/>
	<path fill="#010003" d="M812.556 543.43C818.233 543.332 880.949 553.353 885.228 555.204C885.387 555.684 885.466 555.868 885.562 556.335C886.381 560.321 883.77 582.892 881.884 585.606C872.981 585.493 863.655 583.642 854.82 582.473Q831.465 579.487 808.164 576.101C808.454 568.696 810.387 549.964 812.556 543.43Z"/>
	<path fill="#FDFDFD" d="M815.382 546.648C837.651 551.05 860.245 554.102 882.575 558.243C882.344 562.982 881.382 578.556 879.416 582.261Q860.948 579.634 842.442 577.283C832.133 576.034 821.643 575.196 811.45 573.237C813.238 564.55 814.043 555.443 815.382 546.648Z"/>
	<path fill="#FDFDFD" d="M825.362 324.254L826.158 324.224C831.282 324.051 836.724 323.817 841.747 325.036C856.176 328.538 877.598 343.989 888.674 354.51C925.649 389.63 939.978 441.683 941.107 491.28C919.712 488.003 898.432 483.692 877.141 479.801L805.125 467.156L666.809 443.554C675.671 422.239 687.144 403.504 702.596 386.352C735.792 349.505 775.071 326.835 825.362 324.254Z"/>
	<path fill="#FDFDFD" d="M484.778 427.493C496.789 427.995 509.56 430.989 521.462 432.881L602.76 446.023Q772.204 471.933 940.914 502.261C940.406 520.736 938.468 538.494 935.251 556.692Q932.287 556.337 929.317 556.029C926.843 555.787 924.854 555.551 922.873 557.304C920.482 559.42 919.185 563.625 919.183 566.728C919.182 568.985 919.851 570.999 921.494 572.587C923.913 574.926 926.88 574.516 929.989 574.518C928.004 583.648 925.679 592.732 924.199 601.959C916.043 597.061 908.964 594.323 899.657 592.167C903.304 574.36 907.792 555.984 910.287 538.03C896.453 534.539 881.681 532.947 867.594 530.644Q823.255 523.664 779.01 516.107C771.802 514.837 755.396 513.04 749.827 509.901C749.096 509.489 749.635 509.639 748.406 509.75C747.957 510.504 747.666 511.153 747.428 512.007C745.663 518.362 745.144 525.221 743.985 531.732L735.061 583.683C729.774 614.849 724.41 645.91 719.626 677.163C718.192 686.525 716.137 695.839 714.992 705.237C714.749 707.226 714.276 709.713 715.272 711.473C720.63 713.696 727.299 714.258 733.004 715.245L761.524 720.114C783.245 723.779 804.831 728.118 826.595 731.528C838.18 741.986 841.166 745.233 856.387 751.472L748.666 733.978C731.521 731.118 714.153 728.747 697.128 725.289C698.341 712.085 701.016 698.785 703.096 685.67L715.857 607.151L727.538 533.522C729.982 518.288 732.198 502.871 735.585 487.812C767.94 493.481 800.459 498.127 832.823 503.758L893.504 514.355C899.575 515.406 911.407 518.622 916.779 518.018C917.778 517.906 918.108 517.984 918.765 517.176C918.692 517.038 918.64 516.889 918.548 516.764C917.502 515.335 914.624 514.613 912.994 514.189C910.293 513.487 907.407 513.351 904.656 512.832Q892.818 510.506 880.933 508.429Q844.546 501.978 808.089 495.932L591.345 460.604L532.16 451.273C520.04 449.366 507.755 447.723 495.818 444.868C492.878 458.176 491.385 472.034 489.469 485.524L481.687 538.396L456.516 708.258C467.678 711.565 479.938 713.154 491.385 715.382Q532.573 723.233 573.862 730.539Q691.939 751.712 809.705 774.542C818.561 776.231 887.433 789.474 889.107 788.336C892.204 781.37 892.528 766.874 893.511 758.853C899.63 759.726 905.286 760.099 911.457 759.621C909.923 769.156 908.945 778.829 907.73 788.413C907.158 792.928 906.908 797.981 905.548 802.314C904.868 804.48 904.01 806.138 902.455 807.791C900.086 808.984 895.148 808.236 892.536 807.788C861.491 802.458 830.56 795.936 799.616 790.024L620.442 756.104L499.718 733.582C483.696 730.53 467.335 728.405 451.471 724.66C445.285 723.199 442.879 722.174 439.519 716.684L439.54 715.863C439.672 712.047 440.703 707.944 441.298 704.162Q442.945 693.687 444.365 683.179Q451.968 627.286 460.849 571.582L475.008 472.804C476.901 460.188 478.147 446.997 480.817 434.555C481.487 431.433 482.448 429.679 484.778 427.493Z"/>
	<path fill="#FDFDFD" d="M498.701 449.303C526.262 454.646 554.211 458.425 581.967 462.635C610.415 466.951 638.853 471.995 667.26 476.652C688.776 480.179 710.524 483.203 731.916 487.341C727.903 508.547 724.723 529.816 721.307 551.12L708.067 633.158Q702.631 665.371 697.671 697.66C696.06 707.716 693.904 717.822 692.864 727.949C698.957 729.855 705.445 730.52 711.74 731.529L739.476 736.031Q792.545 745.204 845.745 753.585C860.319 755.755 875.249 755.792 889.69 758.628C889.365 766.807 887.774 774.965 887.297 783.164L886.76 784.86C882.08 785.73 858.664 779.776 852.557 778.635L720.362 753.748L564.573 725.233C529.854 718.913 494.981 712.921 460.49 705.445L498.701 449.303Z"/>
	<path fill="#010003" d="M548.507 499.193C551.709 499.6 558.72 499.616 561.081 501.84C561.677 502.401 561.507 503.781 561.553 504.576C558.208 504.415 551.173 504.884 548.842 502.216C548.28 501.573 548.518 500.039 548.507 499.193Z"/>
	<path fill="#010003" d="M587.598 491.937C592.346 492.726 598.771 492.582 602.944 495.063C603.672 496.385 603.533 496.692 603.395 498.222C598.522 497.584 591.803 497.718 587.559 495.056C586.821 493.695 587.189 493.384 587.598 491.937Z"/>
	<path fill="#010003" d="M548.366 486.345C552.383 487.831 556.839 488.066 561.007 489.068C562.397 489.402 563.698 489.755 564.493 491.037C564.332 492.299 564.101 492.445 563.259 493.427C559.102 492.564 549.847 492.695 547.072 489.647C546.997 488.011 547.475 487.677 548.366 486.345Z"/>
	<path fill="#010003" d="M584.423 505.44C590.58 505.301 598.753 506.356 604.65 508.046C605.249 509.334 604.949 510.181 604.812 511.562C601.326 511.557 587.968 510.265 585.487 508.468C584.277 507.591 584.518 506.786 584.423 505.44Z"/>
	<path fill="#010003" d="M629.923 499.446C635.006 499.009 685.495 506.779 688.625 509.25L688.769 510.787C687.692 511.329 686.698 511.469 685.506 511.365C676.929 510.621 668.074 508.487 659.553 507.085C650.215 505.548 640.545 504.64 631.341 502.477C630.285 501.505 630.285 500.813 629.923 499.446Z"/>
	<path fill="#010003" d="M624.595 511.991C635.974 513.055 647.634 515.818 658.913 517.839C666.969 519.283 676.531 519.973 684.101 522.837C685.045 524.055 684.9 524.585 684.987 526.093C677.855 525.792 669.997 523.447 662.892 522.201L639.309 518.091C634.644 517.276 629.608 516.749 625.121 515.242C624.339 513.989 624.538 513.439 624.595 511.991Z"/>
	<path fill="#010003" d="M518.953 477.097C520.891 477.17 522.694 477.263 524.477 478.1C527.309 479.428 529.465 481.746 530.411 484.747Q530.58 485.282 530.696 485.83Q530.812 486.379 530.874 486.937Q530.936 487.494 530.942 488.055Q530.949 488.616 530.901 489.175Q530.852 489.733 530.749 490.285Q530.646 490.836 530.49 491.375Q530.333 491.913 530.124 492.434Q529.916 492.954 529.657 493.452C527.923 496.797 525.298 498.297 521.824 499.437C519.446 499.557 517.204 499.484 515.079 498.272Q514.582 497.984 514.117 497.647Q513.652 497.31 513.224 496.927Q512.795 496.545 512.408 496.121Q512.021 495.696 511.678 495.235Q511.336 494.774 511.042 494.281Q510.748 493.787 510.506 493.266Q510.264 492.745 510.076 492.203Q509.888 491.66 509.756 491.101C508.97 487.893 509.498 484.364 511.377 481.623C513.348 478.746 515.649 477.781 518.953 477.097Z"/>
	<path fill="#FDFDFD" d="M518.636 481.963C519.493 482.131 520.401 482.291 521.218 482.607C522.672 483.171 523.907 484.704 524.48 486.115C525.119 487.689 525.046 489.372 524.377 490.923C523.461 493.041 521.978 493.69 519.967 494.491C519.022 494.297 518.023 494.115 517.12 493.769C515.698 493.225 514.386 491.628 513.846 490.222C513.288 488.77 513.39 487.199 514.018 485.791C514.973 483.651 516.571 482.845 518.636 481.963Z"/>
	<path fill="#010003" d="M538.846 636.569C539.763 636.572 540.603 636.622 541.507 636.789C545.262 637.48 548.592 639.135 550.666 642.459C552.227 644.962 552.674 647.79 552.744 650.695C552.951 659.358 550.791 668.636 549.499 677.207C548.199 685.832 547.281 694.769 545.271 703.254C541.969 702.4 538.457 701.989 535.089 701.424Q527.21 699.852 519.371 698.09C519.771 689.435 526.029 648.778 529.425 642.762C531.379 639.301 535.166 637.529 538.846 636.569Z"/>
	<path fill="#FDFDFD" d="M538.666 640.522C539.784 640.46 540.908 640.461 542.015 640.659Q542.391 640.724 542.758 640.827Q543.125 640.929 543.481 641.068Q543.836 641.206 544.176 641.379Q544.516 641.552 544.837 641.758Q545.158 641.964 545.457 642.201Q545.755 642.438 546.029 642.703Q546.303 642.969 546.549 643.26Q546.795 643.552 547.011 643.866C548.544 646.117 548.898 649.17 548.957 651.822C549.107 658.557 547.622 665.659 546.582 672.304Q544.553 685.621 542.283 698.898L536.327 697.884C531.954 697.103 527.602 696.097 523.253 695.189C524.16 687.224 525.743 679.225 526.996 671.301C528.102 664.307 528.795 656.775 530.784 649.992C532.275 644.91 533.998 643.05 538.666 640.522Z"/>
	<path fill="#010003" d="M498.608 627.559C500.22 627.419 501.9 627.311 503.499 627.636C506.529 628.252 509.441 630.297 511.181 632.826C512.492 634.732 513.409 637.082 513.57 639.399C514.054 646.395 512.12 654.333 511.123 661.275Q508.704 678.589 505.994 695.86C502.854 695.675 499.778 695.266 496.665 694.828C491.096 693.75 485.238 692.954 479.862 691.133C481.177 680.894 482.878 670.681 484.439 660.475C485.665 652.46 486.253 643.434 489.207 635.867C490.906 631.518 494.487 629.316 498.608 627.559Z"/>
	<path fill="#FDFDFD" d="M498.58 631.566C499.65 631.429 500.77 631.261 501.85 631.351C504.025 631.532 506.243 632.706 507.598 634.413C509.061 636.255 509.62 638.617 509.744 640.923C510.071 647.034 508.543 653.515 507.647 659.541C506.038 670.36 504.226 681.269 503.257 692.163L495.627 690.64C491.629 689.881 487.607 689.229 483.598 688.531C485.516 678.641 486.944 668.693 488.374 658.724C489.196 652.998 489.724 646.986 491.198 641.386C492.525 636.347 494.04 634.246 498.58 631.566Z"/>
	<path fill="#010003" d="M664.213 610.587C665.605 610.535 666.93 610.568 668.302 610.848C671.733 611.548 674.639 613.889 676.411 616.86C677.942 619.427 678.668 622.134 678.64 625.115C678.58 631.408 677.232 637.763 676.314 643.975L672.637 669.519L667.513 704.194C666.515 710.838 665.822 717.723 664.079 724.217L654.956 722.645C649.76 721.723 644.549 720.867 639.428 719.579C639.149 707.798 642.888 689.653 644.635 677.523C647.061 660.68 648.778 643.409 651.957 626.71C652.502 623.848 653.142 620.672 654.457 618.06C656.519 613.965 659.982 611.935 664.213 610.587Z"/>
	<path fill="#FDFDFD" d="M664.021 614.025C665.09 614.016 666.199 613.987 667.26 614.13C669.239 614.396 671.194 615.772 672.379 617.336C673.961 619.425 674.942 622.497 675.054 625.098C675.407 633.271 672.657 646.028 671.446 654.409L661.594 720.088L655.92 719.114C651.628 718.163 647.188 717.607 642.848 716.894L652.431 649.498C653.727 640.693 654.047 630.982 656.591 622.494C657.855 618.279 660.218 616.049 664.021 614.025Z"/>
	<path fill="#010003" d="M591.19 566.188C592.129 566.245 593.082 566.301 594.009 566.47C596.962 567.009 599.988 569.165 601.696 571.596C603.848 574.658 603.986 577.806 603.852 581.414C603.635 587.292 602.442 593.24 601.555 599.054L597.189 627.653L585.05 709.646C581.068 709.479 577.044 708.643 573.107 708.021C568.391 707.171 563.682 706.351 559.028 705.197C561.592 681.398 566.001 657.677 569.494 633.992L574.683 598.315C575.643 591.922 576.407 585.358 577.863 579.062C578.511 576.259 579.309 573.681 581.137 571.389C583.76 568.103 587.122 566.664 591.19 566.188Z"/>
	<path fill="#FDFDFD" d="M590.184 570.105C591.21 570.16 592.253 570.208 593.267 570.373C595.518 570.74 597.64 571.997 598.912 573.905C600.617 576.462 600.38 579.395 600.19 582.327C599.814 588.115 598.53 593.946 597.63 599.684C596.338 607.923 595.22 616.193 594.032 624.448C590.143 651.486 586.761 678.847 581.803 705.698L574.092 704.446L563.11 702.665Q568.294 665.028 574.2 627.497C576.545 611.622 578.15 595.252 581.391 579.56C581.736 577.888 582.202 576.236 583.102 574.77C584.797 572.009 587.131 570.867 590.184 570.105Z"/>
	<path fill="#010003" d="M635.047 537.114C636.251 537.052 637.402 537.026 638.6 537.192Q639.248 537.285 639.883 537.442Q640.518 537.6 641.134 537.821Q641.75 538.042 642.34 538.324Q642.931 538.607 643.489 538.947Q644.048 539.288 644.57 539.683Q645.091 540.079 645.57 540.525Q646.049 540.971 646.48 541.463Q646.911 541.956 647.29 542.489C649.119 545.113 649.778 547.788 649.685 550.957C649.475 558.11 647.907 565.252 646.854 572.316L641.993 605.824C636.579 642.896 631.647 680.216 625.226 717.12C621.837 716.767 618.468 716.052 615.117 715.434C609.767 714.483 604.237 713.774 599.055 712.115L616.519 592.415C618.136 581.566 620.659 554.848 624.115 546.569C626.042 541.953 630.524 538.813 635.047 537.114Z"/>
	<path fill="#FDFDFD" d="M636.181 540.493C636.8 540.488 637.421 540.487 638.039 540.537C640.344 540.724 642.638 542.288 644.029 544.086C645.638 546.167 646.002 548.432 645.933 550.987C645.766 557.11 644.458 563.466 643.568 569.528L638.806 601.918L622.255 713.046L615.378 711.836L602.981 709.739C604.651 699.6 605.582 689.316 607.102 679.147L620.7 590.092C622.371 579.033 623.72 558.457 627.272 548.784C628.916 544.309 632.003 542.334 636.181 540.493Z"/>
	<path fill="#FDFDFD" d="M529.509 751.221C548.891 755.096 568.399 758.338 587.791 762.167C615.79 767.697 643.92 773.738 672.133 777.973C667.836 797.065 664.236 816.47 659.262 835.388C651.148 833.386 641.611 830.236 633.231 830.332C629.182 830.378 581.455 841.482 578.595 843.111C577.706 843.618 577.188 844.255 576.612 845.095C576.378 846.694 576.412 847.703 577.379 849.064C579.606 852.199 584.056 853.841 587.607 854.972C598.536 858.452 610.136 860.688 621.294 863.446Q656.084 872.245 690.989 880.573L743.216 893.565C752.948 896.007 763.214 899.4 773.185 900.544C777.324 901.019 782.683 900.363 786.1 897.773C787.096 897.018 788.046 895.933 788.3 894.673C789.174 890.332 781.386 882.206 778.704 879.12C771.279 870.575 763.315 862.405 756.72 853.18C785.806 856.909 896.11 884.833 912.207 904.831C913.607 906.57 914.66 908.695 914.261 910.982C913.49 915.396 908.971 918.632 905.416 920.883C883.272 934.911 835.805 943.977 809.316 948.824C735.696 962.296 660.665 967.902 585.982 971.432Q547.125 973.44 508.224 974.225Q469.324 975.011 430.417 974.574Q391.511 974.138 352.637 972.479Q313.764 970.82 274.962 967.94C230.582 964.289 185.835 960.052 142.375 950.048C114.913 943.727 76.3279 931.811 60.7549 906.831C54.5957 896.951 52.836 885.626 55.5355 874.299C61.8367 847.862 87.1879 826.464 109.464 812.919C132.376 798.986 158.267 790.508 184.481 785.488C184.543 803.486 184.93 821.478 184.831 839.476C168.035 840.665 128.414 843.452 117.631 856.603C113.565 861.563 115.29 877.31 115.586 884.025C122.149 893.525 142.535 897.5 153.729 899.561C184.71 905.265 255.974 906.336 281.935 887.894C284.07 886.377 286.759 884.005 287.254 881.274C287.394 880.502 287.415 879.585 287.341 878.802C287.405 873.398 287.43 867.993 287.715 862.595C287.572 859.136 286.213 857.01 283.65 854.707C271.235 843.555 236.11 840.634 219.491 838.935L219.426 781.793C238.149 782.4 256.405 783.869 274.904 786.913C332.403 796.374 408.474 817.252 465.651 802.323C481.958 798.066 497.426 790.215 509.767 778.63C518.026 770.878 524.591 761.391 529.509 751.221Z"/>
	<path fill="#010003" d="M399.009 846.431C399.479 846.366 399.686 846.32 400.135 846.316C404.574 846.277 410.542 848.499 414.92 849.582L454.05 859.612L560.839 886.771C578.035 891.122 595.644 894.757 612.671 899.624C614.722 900.211 618.383 901.258 619.56 903.16C620.671 904.957 620.279 912.183 619.636 914.25C619.254 915.478 618.358 916.152 617.318 916.852C611.61 920.692 604.592 923.454 598.369 926.396C584.969 932.733 571.33 938.695 558.16 945.496C556.486 946.367 554.643 946.939 552.87 947.579C527.807 939.499 501.74 933.557 476.199 927.15Q427.683 915.103 379.415 902.095C371.574 900.017 343.891 894.234 338.868 890.515C336.725 887.162 337.461 882.677 337.57 878.868C343.174 874.507 350.462 871.351 356.775 868.11C370.818 860.899 385.287 854.223 399.009 846.431Z"/>
	<path fill="#64657A" d="M616.155 908.45L616.919 908.973C616.962 910.056 617.161 911.631 616.667 912.622C615.903 914.154 613.514 915.496 612.089 916.287C608.962 918.022 605.458 919.238 602.216 920.764L577.386 932.544C570.903 935.588 560.099 941.977 553.636 943.512L552.854 942.982C554.222 941.555 553.933 940.809 554.452 939.047C555.309 936.132 610.066 911.638 616.155 908.45Z"/>
	<path fill="#FDFDFD" d="M340.459 883.239L490.859 922.27C507.096 926.547 523.39 930.591 539.549 935.152C542.266 935.919 545.126 936.226 547.806 937.102C548.663 937.382 549.963 937.896 550.59 938.573C551.832 939.918 551.513 941.387 551.567 943.098C542.784 941.128 534.064 938.516 525.364 936.191Q503.097 930.214 480.741 924.582Q431.714 912.407 382.906 899.376C369.825 895.975 356.46 893.058 343.473 889.396C342.556 889.138 342.005 888.703 341.289 888.099C340.246 886.534 340.436 885.063 340.459 883.239Z"/>
	<path fill="#FDFDFD" d="M400.366 849.395L533.648 883.436C561.344 890.435 589.356 896.794 616.875 904.391C608.501 909.029 599.53 912.734 590.859 916.789L556.125 933.332L552.061 934.929L341.527 879.851C360.818 869.126 381.27 860.427 400.366 849.395Z"/>
	<path fill="#010003" d="M426.983 887.343C429.887 887.999 433.421 888.254 435.913 889.881C436.541 891.285 436.174 891.711 435.771 893.158C432.859 892.679 429.628 892.539 427.199 890.764C426.453 889.27 426.693 888.94 426.983 887.343Z"/>
	<path fill="#010003" d="M394.283 879.209C397.276 879.515 400.248 879.514 402.81 881.236C403.691 882.7 403.516 883.113 403.421 884.774C403.284 884.772 403.146 884.774 403.008 884.766C400.521 884.635 395.96 884.337 394.376 882.23C393.875 881.563 394.23 880.036 394.283 879.209Z"/>
	<path fill="#010003" d="M460.187 896.07C463.089 896.392 466.172 896.381 468.553 898.233C469.257 899.735 469.018 900.176 468.758 901.775C465.925 901.329 462.63 901.237 460.257 899.541C459.549 898.006 459.822 897.674 460.187 896.07Z"/>
	<path fill="#010003" d="M519.542 891.901C522.5 892.335 525.791 892.396 528.173 894.359C528.81 895.959 528.537 896.17 528.028 897.757C525.025 897.263 521.339 897.125 519.013 895.006C518.632 893.532 518.952 893.262 519.542 891.901Z"/>
	<path fill="#010003" d="M420.074 866.039C423.124 866.333 426.943 866.161 429.509 867.949C430.121 869.561 429.715 870.036 429.214 871.646C426.231 871.1 422.86 870.811 420.276 869.152C419.455 867.755 419.705 867.647 420.074 866.039Z"/>
	<path fill="#010003" d="M485.277 882.921C488.719 883.155 492.038 883.061 495.106 884.807C496.018 886.176 495.845 886.309 495.662 887.973C493.187 888.28 488.89 888.238 486.875 886.593C485.528 885.495 485.545 884.513 485.277 882.921Z"/>
	<path fill="#010003" d="M452.535 873.857C455.478 874.281 460.504 874.674 462.556 877.006C463.161 877.694 462.894 878.693 462.871 879.567C460.348 879.788 455.073 879.381 453.181 877.41C452.134 876.32 452.487 875.242 452.535 873.857Z"/>
	<path fill="#010003" d="M493.167 904.579C496.11 904.883 499.81 905.133 501.931 907.351C502.27 909.016 501.83 909.271 501.014 910.709C498.306 909.907 493.916 909.863 492.141 907.469C492.159 906.132 492.486 905.755 493.167 904.579Z"/>
	<path fill="#010003" d="M527.057 913.37C530.275 914.01 534.172 914.301 536.705 916.545C537.313 918.108 537.204 918.212 536.746 919.847C533.395 919.024 529.095 919.118 526.429 916.784C526.1 915.246 526.477 914.798 527.057 913.37Z"/>
	<path fill="#010003" d="M553.666 899.398C556.318 900.202 561.187 900.394 563.115 902.418C564.151 903.506 563.808 904.322 563.644 905.665C562.946 905.719 562.938 905.733 562.113 905.715C559.106 905.65 555.219 905.571 553.087 903.235C552.753 901.744 553.175 900.778 553.666 899.398Z"/>
</svg>
